# xmcd
#
# Track frame offsets:
#	150
#	19013
#	33784
#	47239
#	62095
#	75322
#	94431
#	108295
#	122152
#	136477
#	151423
#	171006
#	185106
#	199967
#	220336
#	233032
#	247685
#	262682
#	277546
#	296826
#
# Disc length: 4226 seconds
#
# Revision: 0
# Processed by: cddbd v1.5.2PL0 Copyright (c) Steve Scherf et al.
# Submitted via: EasyCDDAExtractor 16.0.6.1
#
DISCID=11108014
DTITLE=Συλλογικός δίσκος - Τα ρεμπέτικα Β 1922-1937 05 Β
DYEAR=2010
DGENRE=Ρεμπέτικη
TTITLE0=Μπέζος Κώστας ή Κωστής Α. - Η φυλακή είναι σχολείο [scotti(;),ετικ. Κ.
TTITLE0=Κωστής, Αθήνα 1931]
TTITLE1=Διαμαντίδης Αντώνης ή Νταλγκάς - Απ' την Πόλη ένας μόρτης [Αντ. Διαμαν
TTITLE1=τίδης, Αθήνα 1931]
TTITLE2=Εσκενάζυ Ρόζα - Τζιτζιφιώτισσα [Παν. Τούντας, Αθήνα1932]
TTITLE3=Ρούκουνας Κώστας ή Σαμιωτάκης - Πολίτισσα Πριγκηπιώτισσα [ρεμπ., Παν. 
TTITLE3=Τούντας, Αθήνα 1931]
TTITLE4=Βιδάλης Γιώργος - Ο σεβνταλής [ζεϊμπ., Δημ. Σέμσης, Αθήνα 1930]
TTITLE5=Κατσαρός Γιώργος - Εάν είχα εκατό [Γ. Κατσαρός, Σικάγο 5.11.1929]
TTITLE6=Καρίπης Κώστας - Μινόρε μανές [Αθήνα 1930]
TTITLE7=Εσκενάζυ Ρόζα - Το νέο χασαπάκι [Ρ. Εσκενάζυ, Αθήνα 1932]
TTITLE8=Διαμαντίδης Αντώνης ή Νταλγκάς - Μπεκρής [ρεμπ., Κ. Σκαρβέλης, Αθήνα 1
TTITLE8=928]
TTITLE9=Ρούκουνας Κώστας ή Σαμιωτάκης - Μεθυσμένος [Ι. Δραγάτσης, Αθήνα 1931]
TTITLE10=Ιωαννίδης Γιαννάκης - Το αλανάκι [Ζαχ. Θάνος (Νοταράκης), Ν. Υόρκη 9.
TTITLE10=1928]
TTITLE11=Διαμαντίδης Αντώνης ή Νταλγκάς - Ο τζογαδώρος [Αντ. Διαμαντίδης, Αθήν
TTITLE11=α 16.12.1933]
TTITLE12=Εσκενάζυ Ρόζα - Ραστ κάντο [Αθήνα 1930]
TTITLE13=Κατσαρός Γιώργος - Όλ' ημέρα παίζει ζάρια [ζεϊμπ., Ν. Υερσέη 16.6.192
TTITLE13=7]
TTITLE14=Βιδάλης Γιώργος - Η Κούλα [Κ. Μισαηλίδης, Αθήνα 1930]
TTITLE15=Ατραΐδης Δημήτρης - Στον Ποδονίφτη [Παν. Τούντας, Αθήνα 1931]
TTITLE16=Διαμαντίδης Αντώνης ή Νταλγκάς - Το μελανούρι [Αντ. Διαμαντίδης, Αθήν
TTITLE16=α 1931]
TTITLE17=Καρίπης Κώστας - Η γλυκοφρυδού [Ι. Δραγάτσης, Αθήνα 1927]
TTITLE18=Κουρούκλη Λίζα-άγνωστος - Ο ψαράς [ρεμπ., Ζάχ. Θάνος-Δημ. Ευαγγελίδης
TTITLE18=, Ν. Υόρκη 1929]
TTITLE19=Κυριακός Πέτρος-χορ. Βρυσ. Παντοπούλου - Η καρδιά του μάγκα [κωμ. σκε
TTITLE19=τς, Μυταράκης-Ζάκης, ΝΥόρκη 9.10.1929]
EXTD=
EXTT0=
EXTT1=
EXTT2=
EXTT3=
EXTT4=
EXTT5=
EXTT6=
EXTT7=
EXTT8=
EXTT9=
EXTT10=
EXTT11=
EXTT12=
EXTT13=
EXTT14=
EXTT15=
EXTT16=
EXTT17=
EXTT18=
EXTT19=
PLAYORDER=
